<svg width="47" height="46" viewBox="0 0 47 46" fill="none" xmlns="http://www.w3.org/2000/svg">
<circle cx="23.5156" cy="23" r="23" fill="#0A0A0A"/>
<path d="M23.5156 22.3571C25.9156 22.3571 27.8612 20.4863 27.8612 18.1786C27.8612 15.8708 25.9156 14 23.5156 14C21.1157 14 19.1701 15.8708 19.1701 18.1786C19.1701 20.4863 21.1157 22.3571 23.5156 22.3571Z" fill="white"/>
<path d="M16.516 29.0879C16.5093 29.2807 16.5962 29.4736 16.75 29.6021C18.6486 31.145 21.0487 32 23.5156 32C25.9825 32 28.3826 31.145 30.2813 29.6021C30.435 29.4736 30.522 29.2807 30.5153 29.0879C30.415 26.3943 28.6634 24.0221 26.0561 23.045C25.9038 22.9883 25.7353 22.986 25.5814 23.0386C24.2711 23.495 22.7602 23.495 21.4498 23.0386C21.2959 22.986 21.1275 22.9883 20.9752 23.045C18.3678 24.0221 16.6163 26.3943 16.516 29.0879Z" fill="white"/>
</svg>
