<svg width="169" height="41" viewBox="0 0 169 41" fill="none" xmlns="http://www.w3.org/2000/svg">
<path d="M63.0403 30.0943V15.7183H57.4483V13.1743H71.7283V15.7183H66.1363V30.0943H63.0403ZM71.7767 30.0943V21.0703C71.7767 20.5583 71.7607 20.0383 71.7287 19.5103C71.7127 18.9823 71.6727 18.4703 71.6087 17.9743H74.5127L74.8487 21.2863H74.3687C74.5287 20.4863 74.7927 19.8223 75.1607 19.2943C75.5447 18.7663 76.0087 18.3743 76.5527 18.1183C77.0967 17.8623 77.6887 17.7343 78.3287 17.7343C78.6167 17.7343 78.8487 17.7503 79.0247 17.7823C79.2007 17.7983 79.3767 17.8383 79.5527 17.9023L79.5287 20.5423C79.2247 20.4143 78.9607 20.3343 78.7367 20.3023C78.5287 20.2703 78.2647 20.2543 77.9447 20.2543C77.2567 20.2543 76.6727 20.3983 76.1927 20.6863C75.7287 20.9743 75.3767 21.3743 75.1367 21.8863C74.9127 22.3983 74.8007 22.9823 74.8007 23.6383V30.0943H71.7767ZM85.7854 30.3343C84.7294 30.3343 83.8014 30.0863 83.0014 29.5903C82.2014 29.0783 81.5774 28.3503 81.1294 27.4063C80.6814 26.4623 80.4574 25.3343 80.4574 24.0223C80.4574 22.7103 80.6814 21.5903 81.1294 20.6623C81.5774 19.7183 82.2014 18.9983 83.0014 18.5023C83.8014 17.9903 84.7294 17.7343 85.7854 17.7343C86.8094 17.7343 87.7054 17.9903 88.4734 18.5023C89.2574 18.9983 89.7774 19.6703 90.0334 20.5183H89.7694L90.0334 17.9743H92.9134C92.8654 18.4703 92.8174 18.9743 92.7694 19.4863C92.7374 19.9983 92.7214 20.5023 92.7214 20.9983V30.0943H89.7454L89.7214 27.5983H90.0094C89.7534 28.4303 89.2334 29.0943 88.4494 29.5903C87.6654 30.0863 86.7774 30.3343 85.7854 30.3343ZM86.6254 28.0303C87.5694 28.0303 88.3294 27.7023 88.9054 27.0463C89.4814 26.3743 89.7694 25.3663 89.7694 24.0223C89.7694 22.6783 89.4814 21.6783 88.9054 21.0223C88.3294 20.3663 87.5694 20.0383 86.6254 20.0383C85.6814 20.0383 84.9214 20.3663 84.3454 21.0223C83.7694 21.6783 83.4814 22.6783 83.4814 24.0223C83.4814 25.3663 83.7614 26.3743 84.3214 27.0463C84.8974 27.7023 85.6654 28.0303 86.6254 28.0303ZM96.8042 30.0943V20.2303H94.4762V17.9743H97.6442L96.8042 18.7423V16.8943C96.8042 15.3903 97.1882 14.2543 97.9562 13.4863C98.7402 12.7183 99.8842 12.3343 101.388 12.3343C101.74 12.3343 102.108 12.3583 102.492 12.4063C102.892 12.4543 103.236 12.5423 103.524 12.6703V15.0223C103.316 14.9423 103.068 14.8783 102.78 14.8303C102.492 14.7823 102.212 14.7583 101.94 14.7583C101.524 14.7583 101.148 14.8383 100.812 14.9983C100.492 15.1583 100.236 15.4063 100.044 15.7423C99.8682 16.0623 99.7802 16.4943 99.7802 17.0383V18.5023L99.3482 17.9743H102.972V20.2303H99.8042V30.0943H96.8042ZM109.387 30.3343C108.331 30.3343 107.403 30.0863 106.603 29.5903C105.803 29.0783 105.179 28.3503 104.731 27.4063C104.283 26.4623 104.059 25.3343 104.059 24.0223C104.059 22.7103 104.283 21.5903 104.731 20.6623C105.179 19.7183 105.803 18.9983 106.603 18.5023C107.403 17.9903 108.331 17.7343 109.387 17.7343C110.411 17.7343 111.307 17.9903 112.075 18.5023C112.859 18.9983 113.379 19.6703 113.635 20.5183H113.371L113.635 17.9743H116.515C116.467 18.4703 116.419 18.9743 116.371 19.4863C116.339 19.9983 116.323 20.5023 116.323 20.9983V30.0943H113.347L113.323 27.5983H113.611C113.355 28.4303 112.835 29.0943 112.051 29.5903C111.267 30.0863 110.379 30.3343 109.387 30.3343ZM110.227 28.0303C111.171 28.0303 111.931 27.7023 112.507 27.0463C113.083 26.3743 113.371 25.3663 113.371 24.0223C113.371 22.6783 113.083 21.6783 112.507 21.0223C111.931 20.3663 111.171 20.0383 110.227 20.0383C109.283 20.0383 108.523 20.3663 107.947 21.0223C107.371 21.6783 107.083 22.6783 107.083 24.0223C107.083 25.3663 107.363 26.3743 107.923 27.0463C108.499 27.7023 109.267 28.0303 110.227 28.0303ZM119.59 30.0943V12.4303H122.59V30.0943H119.59ZM131.464 35.4703C130.344 35.4703 129.328 35.3503 128.416 35.1103C127.52 34.8703 126.72 34.5023 126.016 34.0063L126.664 31.8463C127.128 32.1503 127.608 32.3983 128.104 32.5903C128.6 32.7823 129.112 32.9263 129.64 33.0223C130.168 33.1183 130.704 33.1663 131.248 33.1663C132.368 33.1663 133.2 32.8863 133.744 32.3263C134.304 31.7823 134.584 30.9983 134.584 29.9743V27.0703H134.824C134.568 27.9023 134.048 28.5663 133.264 29.0623C132.496 29.5583 131.608 29.8063 130.6 29.8063C129.512 29.8063 128.56 29.5663 127.744 29.0863C126.944 28.5903 126.32 27.8863 125.872 26.9743C125.424 26.0623 125.2 24.9903 125.2 23.7583C125.2 22.5263 125.424 21.4623 125.872 20.5663C126.32 19.6543 126.944 18.9583 127.744 18.4783C128.56 17.9823 129.512 17.7343 130.6 17.7343C131.624 17.7343 132.512 17.9823 133.264 18.4783C134.032 18.9583 134.544 19.6143 134.8 20.4463L134.584 20.3023L134.824 17.9743H137.728C137.664 18.4703 137.616 18.9743 137.584 19.4863C137.552 19.9983 137.536 20.5023 137.536 20.9983V29.6143C137.536 31.5183 137.016 32.9663 135.976 33.9583C134.952 34.9663 133.448 35.4703 131.464 35.4703ZM131.416 27.5023C132.376 27.5023 133.136 27.1823 133.696 26.5423C134.272 25.8863 134.56 24.9583 134.56 23.7583C134.56 22.5583 134.272 21.6383 133.696 20.9983C133.136 20.3583 132.376 20.0383 131.416 20.0383C130.44 20.0383 129.664 20.3583 129.088 20.9983C128.512 21.6383 128.224 22.5583 128.224 23.7583C128.224 24.9583 128.512 25.8863 129.088 26.5423C129.664 27.1823 130.44 27.5023 131.416 27.5023ZM145.457 30.3343C144.401 30.3343 143.473 30.0863 142.673 29.5903C141.873 29.0783 141.249 28.3503 140.801 27.4063C140.353 26.4623 140.129 25.3343 140.129 24.0223C140.129 22.7103 140.353 21.5903 140.801 20.6623C141.249 19.7183 141.873 18.9983 142.673 18.5023C143.473 17.9903 144.401 17.7343 145.457 17.7343C146.481 17.7343 147.377 17.9903 148.145 18.5023C148.929 18.9983 149.449 19.6703 149.705 20.5183H149.441L149.705 17.9743H152.585C152.537 18.4703 152.489 18.9743 152.441 19.4863C152.409 19.9983 152.393 20.5023 152.393 20.9983V30.0943H149.417L149.393 27.5983H149.681C149.425 28.4303 148.905 29.0943 148.121 29.5903C147.337 30.0863 146.449 30.3343 145.457 30.3343ZM146.297 28.0303C147.241 28.0303 148.001 27.7023 148.577 27.0463C149.153 26.3743 149.441 25.3663 149.441 24.0223C149.441 22.6783 149.153 21.6783 148.577 21.0223C148.001 20.3663 147.241 20.0383 146.297 20.0383C145.353 20.0383 144.593 20.3663 144.017 21.0223C143.441 21.6783 143.153 22.6783 143.153 24.0223C143.153 25.3663 143.433 26.3743 143.993 27.0463C144.569 27.7023 145.337 28.0303 146.297 28.0303ZM155.636 30.0943V21.0703C155.636 20.5583 155.62 20.0383 155.588 19.5103C155.572 18.9823 155.532 18.4703 155.468 17.9743H158.372L158.708 21.2863H158.228C158.388 20.4863 158.652 19.8223 159.02 19.2943C159.404 18.7663 159.868 18.3743 160.412 18.1183C160.956 17.8623 161.548 17.7343 162.188 17.7343C162.476 17.7343 162.708 17.7503 162.884 17.7823C163.06 17.7983 163.236 17.8383 163.412 17.9023L163.388 20.5423C163.084 20.4143 162.82 20.3343 162.596 20.3023C162.388 20.2703 162.124 20.2543 161.804 20.2543C161.116 20.2543 160.532 20.3983 160.052 20.6863C159.588 20.9743 159.236 21.3743 158.996 21.8863C158.772 22.3983 158.66 22.9823 158.66 23.6383V30.0943H155.636Z" fill="#233348"/>
<path d="M43.6504 20.7188C43.6504 31.7572 34.0953 40.7056 22.3085 40.7056C10.5217 40.7056 0.966553 31.7572 0.966553 20.7188C0.966553 9.68038 10.5217 0.731995 22.3085 0.731995C34.0953 0.731995 43.6504 9.68038 43.6504 20.7188Z" fill="#458FF6"/>
<path d="M19.8035 31.1193V15.5453H13.7455V12.7893H29.2155V15.5453H23.1575V31.1193H19.8035Z" fill="white"/>
</svg>
